<svg xmlns="http://www.w3.org/2000/svg" xmlns:xlink="http://www.w3.org/1999/xlink" viewBox="0 0 595.28 595.28"><defs><style>.cls-1{isolation:isolate;}.cls-2{fill:#253671;}.cls-3{fill:url(#linear-gradient);}.cls-11,.cls-4{fill:#1b3059;}.cls-10,.cls-5,.cls-8{opacity:0.2;mix-blend-mode:multiply;}.cls-5{fill:url(#radial-gradient);}.cls-6{fill:url(#linear-gradient-2);}.cls-7{fill:#307982;}.cls-8{fill:url(#radial-gradient-2);}.cls-9{fill:url(#linear-gradient-3);}.cls-10{fill:url(#radial-gradient-3);}.cls-11{font-size:16px;font-family:Lato-MediumItalic, Lato;font-weight:500;font-style:italic;}.cls-12{letter-spacing:-0.02em;}.cls-13{letter-spacing:-0.01em;}.cls-14{letter-spacing:-0.02em;}.cls-15{letter-spacing:-0.01em;}.cls-16{letter-spacing:-0.01em;}.cls-17{letter-spacing:0em;}.cls-18{letter-spacing:-0.02em;}.cls-19{letter-spacing:-0.01em;}.cls-20{letter-spacing:-0.01em;}.cls-21{letter-spacing:-0.01em;}.cls-22{letter-spacing:-0.01em;}.cls-23{letter-spacing:-0.01em;}</style><linearGradient id="linear-gradient" x1="420.81" y1="1594.88" x2="317.97" y2="1671.74" gradientTransform="translate(660.71 1940.01) rotate(176.18)" gradientUnits="userSpaceOnUse"><stop offset="0" stop-color="#2b4c8d"/><stop offset="1" stop-color="#253671"/></linearGradient><radialGradient id="radial-gradient" cx="321.06" cy="1682.81" r="42.99" gradientTransform="translate(617.36 1136.99) rotate(175.5) scale(1 0.52)" gradientUnits="userSpaceOnUse"><stop offset="0" stop-color="#fff"/><stop offset="0.95" stop-color="#231f20"/></radialGradient><linearGradient id="linear-gradient-2" x1="435.11" y1="1787.09" x2="481.59" y2="1634.68" gradientTransform="translate(660.71 1940.01) rotate(176.18)" gradientUnits="userSpaceOnUse"><stop offset="0" stop-color="#8bd0be"/><stop offset="1" stop-color="#4dc5d5"/></linearGradient><radialGradient id="radial-gradient-2" cx="445.78" cy="1622.05" r="41.29" gradientTransform="translate(-579.29 840.92) rotate(-93.58) scale(1 0.44)" gradientUnits="userSpaceOnUse"><stop offset="0.03" stop-color="#fff"/><stop offset="0.95" stop-color="#231f20"/></radialGradient><linearGradient id="linear-gradient-3" x1="396.26" y1="1828.09" x2="296.8" y2="1683.36" gradientTransform="translate(660.71 1940.01) rotate(176.18)" gradientUnits="userSpaceOnUse"><stop offset="0" stop-color="#2b4c8d"/><stop offset="1" stop-color="#5db6e6"/></linearGradient><radialGradient id="radial-gradient-3" cx="428.03" cy="1780.94" r="42.21" gradientTransform="matrix(0.9, 0.44, -0.25, 0.5, 167.87, -889.83)" xlink:href="#radial-gradient"/></defs><g class="cls-1"><g id="Layer_5" data-name="Layer 5"><path class="cls-2" d="M321.82,208.17v10.08h12.76v5.06H321.82v13.87h-6.36v-34h21.47v5Z"/><path class="cls-2" d="M368.69,237.18H363a2.5,2.5,0,0,1-2.35-1.28L353.46,225a2.69,2.69,0,0,0-.88-.87,3.14,3.14,0,0,0-1.43-.26h-2.7v13.31h-6.34v-34H352.5a21.58,21.58,0,0,1,5.94.71,11.25,11.25,0,0,1,4.07,2,7.92,7.92,0,0,1,2.35,3.09,10.76,10.76,0,0,1,.24,7.22,9.24,9.24,0,0,1-1.46,2.78,9.63,9.63,0,0,1-2.35,2.18,11.71,11.71,0,0,1-3.19,1.49,6.08,6.08,0,0,1,1.13.83,6.64,6.64,0,0,1,.94,1.14ZM352.4,219.33a9.78,9.78,0,0,0,3.12-.45,5.8,5.8,0,0,0,2.19-1.23,5,5,0,0,0,1.28-1.87,6.37,6.37,0,0,0,.43-2.38,4.83,4.83,0,0,0-1.71-4A8.15,8.15,0,0,0,352.5,208h-4.05v11.3Z"/><path class="cls-2" d="M404.38,220.15a19.14,19.14,0,0,1-1.23,6.94,16.35,16.35,0,0,1-3.5,5.52,16,16,0,0,1-5.44,3.64,19.77,19.77,0,0,1-14.1,0,16,16,0,0,1-5.45-3.64,16.4,16.4,0,0,1-3.52-5.52,19.86,19.86,0,0,1,0-13.87,16.4,16.4,0,0,1,3.52-5.52,16.14,16.14,0,0,1,5.45-3.64,18.35,18.35,0,0,1,7-1.3,19.06,19.06,0,0,1,4.87.6,16.94,16.94,0,0,1,4.19,1.69,15.61,15.61,0,0,1,3.43,2.66,16.49,16.49,0,0,1,2.58,3.5,17.43,17.43,0,0,1,1.61,4.19A19.87,19.87,0,0,1,404.38,220.15Zm-6.47,0a15.67,15.67,0,0,0-.75-5,10.92,10.92,0,0,0-2.15-3.78,9.18,9.18,0,0,0-3.38-2.38,12.68,12.68,0,0,0-9,0,9.47,9.47,0,0,0-3.39,2.38,10.76,10.76,0,0,0-2.15,3.78,17.21,17.21,0,0,0,0,10.05,10.63,10.63,0,0,0,2.15,3.77,9.42,9.42,0,0,0,3.39,2.36,12.53,12.53,0,0,0,9,0A9.13,9.13,0,0,0,395,229a10.78,10.78,0,0,0,2.15-3.77A15.69,15.69,0,0,0,397.91,220.15Z"/><path class="cls-2" d="M428.09,209.33a2.19,2.19,0,0,1-.6.71,1.34,1.34,0,0,1-.79.23,2,2,0,0,1-1.07-.37q-.58-.36-1.38-.81a10.93,10.93,0,0,0-1.87-.81,7.94,7.94,0,0,0-2.53-.37,7.63,7.63,0,0,0-2.31.32,4.94,4.94,0,0,0-1.66.88,3.62,3.62,0,0,0-1,1.36,4.41,4.41,0,0,0-.33,1.73,3.06,3.06,0,0,0,.67,2,5.56,5.56,0,0,0,1.78,1.36,16.51,16.51,0,0,0,2.52,1c.94.3,1.91.61,2.9.95a27.79,27.79,0,0,1,2.89,1.18,9.93,9.93,0,0,1,2.52,1.69,7.77,7.77,0,0,1,1.78,2.51,8.83,8.83,0,0,1,.67,3.6,11.64,11.64,0,0,1-.79,4.32,10.12,10.12,0,0,1-2.31,3.51,10.8,10.8,0,0,1-3.7,2.35,13.55,13.55,0,0,1-5,.86,15.58,15.58,0,0,1-3.2-.32,17.09,17.09,0,0,1-3-.9,16.27,16.27,0,0,1-2.72-1.41,13.73,13.73,0,0,1-2.26-1.84l1.86-3a2.06,2.06,0,0,1,.62-.55,1.51,1.51,0,0,1,.8-.22,2.27,2.27,0,0,1,1.27.48c.45.32,1,.68,1.62,1.07a12.89,12.89,0,0,0,2.2,1.07,8.52,8.52,0,0,0,3,.48,6.19,6.19,0,0,0,4.19-1.28,4.59,4.59,0,0,0,1.48-3.68,3.39,3.39,0,0,0-.67-2.19,5.45,5.45,0,0,0-1.78-1.43,12.88,12.88,0,0,0-2.51-1c-.95-.27-1.9-.56-2.88-.87a24.13,24.13,0,0,1-2.87-1.14,9.27,9.27,0,0,1-2.52-1.71,7.87,7.87,0,0,1-1.78-2.65,10.25,10.25,0,0,1-.67-3.92,9.38,9.38,0,0,1,2.9-6.76,10.54,10.54,0,0,1,3.48-2.19,12.8,12.8,0,0,1,4.76-.82,15.87,15.87,0,0,1,5.56.94,12.69,12.69,0,0,1,4.33,2.64Z"/><path class="cls-2" d="M459.57,208.34H449.3v28.84H443V208.34H432.7v-5.2h26.87Z"/><path class="cls-2" d="M345.69,276.66a18.25,18.25,0,0,1-1.25,6.87,15.4,15.4,0,0,1-8.94,8.9,19.2,19.2,0,0,1-7.06,1.25h-13v-34h13a19,19,0,0,1,7.06,1.26,15.94,15.94,0,0,1,5.44,3.51,15.66,15.66,0,0,1,3.5,5.37A18.27,18.27,0,0,1,345.69,276.66Zm-6.5,0a15.7,15.7,0,0,0-.74-5,10.33,10.33,0,0,0-2.14-3.76,9.28,9.28,0,0,0-3.39-2.37,11.61,11.61,0,0,0-4.48-.83h-6.62v24h6.62a11.61,11.61,0,0,0,4.48-.82,9.28,9.28,0,0,0,3.39-2.37,10.38,10.38,0,0,0,2.14-3.77A15.63,15.63,0,0,0,339.19,276.66Z"/><path class="cls-2" d="M357.63,293.68h-6.36v-34h6.36Z"/><path class="cls-2" d="M393.29,276.61v13.77a18,18,0,0,1-5.52,2.79,21.55,21.55,0,0,1-6.27.89,21.06,21.06,0,0,1-7.55-1.3,16.77,16.77,0,0,1-5.76-3.6,15.85,15.85,0,0,1-3.69-5.51,18.5,18.5,0,0,1-1.29-7,19,19,0,0,1,1.25-7,15.49,15.49,0,0,1,9.11-9.09,20.08,20.08,0,0,1,7.34-1.27,21.47,21.47,0,0,1,3.87.33,19,19,0,0,1,3.35.91,14.45,14.45,0,0,1,2.81,1.4,16.25,16.25,0,0,1,2.33,1.81l-1.81,2.87a1.7,1.7,0,0,1-1.11.84,2,2,0,0,1-1.48-.34l-1.56-.9a9.51,9.51,0,0,0-1.73-.78,15.16,15.16,0,0,0-2.14-.54,15.82,15.82,0,0,0-2.74-.21,11.69,11.69,0,0,0-4.56.85,9.66,9.66,0,0,0-3.47,2.42,11,11,0,0,0-2.21,3.79,14.86,14.86,0,0,0-.78,5,15.1,15.1,0,0,0,.84,5.21,11.07,11.07,0,0,0,2.35,3.89,10,10,0,0,0,3.66,2.42,13,13,0,0,0,4.78.84,13.26,13.26,0,0,0,3.37-.4,16.31,16.31,0,0,0,2.89-1.09v-6.16h-4.28a1.26,1.26,0,0,1-1-.35,1.11,1.11,0,0,1-.35-.83v-3.58Z"/><path class="cls-2" d="M405.77,293.68h-6.35v-34h6.35Z"/><path class="cls-2" d="M437.15,264.84H426.89v28.84h-6.33V264.84H410.29v-5.2h26.86Z"/><path class="cls-2" d="M467.48,293.68h-4.9a2.1,2.1,0,0,1-1.34-.41,2.55,2.55,0,0,1-.78-1l-2.54-6.94h-14.1l-2.55,6.94a2.17,2.17,0,0,1-.73,1,2,2,0,0,1-1.34.45h-4.94l13.39-34h6.45Zm-11.19-12.85-4.14-11.33c-.2-.5-.42-1.1-.63-1.79s-.44-1.43-.66-2.23c-.21.8-.42,1.54-.64,2.24s-.43,1.31-.64,1.83l-4.12,11.28Z"/><path class="cls-2" d="M491,288.45v5.23H471v-34h6.33v28.81Z"/><path class="cls-2" d="M344.63,316.14l-13.75,34h-5.72l-13.75-34h5.09a2.1,2.1,0,0,1,1.34.4,2.42,2.42,0,0,1,.78,1l8,20.77c.26.67.52,1.41.76,2.22s.48,1.65.7,2.53c.19-.88.39-1.72.61-2.53a19.94,19.94,0,0,1,.73-2.22l8-20.77a2.19,2.19,0,0,1,.74-1,2.12,2.12,0,0,1,1.35-.44Z"/><path class="cls-2" d="M354.52,321.17v9.45h11.91v4.87H354.52v9.63h15.11v5.06H348.16v-34h21.47v5Z"/><path class="cls-2" d="M403.94,316.14v34h-3.25a2.77,2.77,0,0,1-1.26-.25,2.84,2.84,0,0,1-1-.83l-17.77-22.7c.09,1,.14,2,.14,2.87v20.91h-5.58v-34h3.32a6.87,6.87,0,0,1,.69,0,1.88,1.88,0,0,1,.52.14,2,2,0,0,1,.44.31,5.57,5.57,0,0,1,.47.53l17.84,22.79q-.07-.82-.12-1.62c0-.54,0-1,0-1.49V316.14Z"/><path class="cls-2" d="M435.29,321.34H425v28.84H418.7V321.34H408.43v-5.2h26.86Z"/><path class="cls-2" d="M453.47,345.07a8.3,8.3,0,0,0,3.28-.61,6.71,6.71,0,0,0,2.44-1.72,7.72,7.72,0,0,0,1.52-2.68,11.16,11.16,0,0,0,.53-3.54V316.14h6.33v20.38a15.76,15.76,0,0,1-1,5.62,12.46,12.46,0,0,1-7.24,7.37,17.07,17.07,0,0,1-11.79,0,12.46,12.46,0,0,1-7.24-7.37,15.76,15.76,0,0,1-1-5.62V316.14h6.34V336.5a10.86,10.86,0,0,0,.53,3.53,7.52,7.52,0,0,0,1.53,2.7,6.82,6.82,0,0,0,2.44,1.73A8.35,8.35,0,0,0,453.47,345.07Z"/><path class="cls-2" d="M501.31,350.18h-5.72a2.51,2.51,0,0,1-2.36-1.27L486.08,338a2.52,2.52,0,0,0-.89-.87,3.09,3.09,0,0,0-1.42-.26h-2.71v13.3h-6.33v-34h10.38a21.45,21.45,0,0,1,5.94.72,11.13,11.13,0,0,1,4.08,2,7.81,7.81,0,0,1,2.34,3.09,10.25,10.25,0,0,1,.75,4,10.48,10.48,0,0,1-.5,3.25,9.59,9.59,0,0,1-1.46,2.78,9.92,9.92,0,0,1-2.36,2.19,11.85,11.85,0,0,1-3.19,1.48,5.44,5.44,0,0,1,1.13.84,5.6,5.6,0,0,1,.94,1.14ZM485,332.33a9.81,9.81,0,0,0,3.13-.44,6,6,0,0,0,2.18-1.24,5,5,0,0,0,1.29-1.87,6.54,6.54,0,0,0,.42-2.38,4.85,4.85,0,0,0-1.71-4,8.17,8.17,0,0,0-5.21-1.39h-4.05v11.3Z"/><path class="cls-2" d="M511.36,321.17v9.45h11.91v4.87H511.36v9.63h15.11v5.06H505v-34h21.47v5Z"/><path class="cls-2" d="M550.2,322.33a2,2,0,0,1-.6.72,1.32,1.32,0,0,1-.79.22,2,2,0,0,1-1.07-.37c-.38-.24-.84-.51-1.37-.81a11.05,11.05,0,0,0-1.88-.81,7.91,7.91,0,0,0-2.53-.36,7.58,7.58,0,0,0-2.3.31,4.86,4.86,0,0,0-1.66.89,3.48,3.48,0,0,0-1,1.35,4.44,4.44,0,0,0-.33,1.73,3,3,0,0,0,.67,2,5.65,5.65,0,0,0,1.77,1.37,17.62,17.62,0,0,0,2.52,1c1,.3,1.91.62,2.9.95a28,28,0,0,1,2.9,1.18A10.2,10.2,0,0,1,550,333.4a7.75,7.75,0,0,1,1.77,2.51,8.67,8.67,0,0,1,.67,3.6,11.73,11.73,0,0,1-.79,4.33,9.83,9.83,0,0,1-2.3,3.5,10.92,10.92,0,0,1-3.71,2.36,13.72,13.72,0,0,1-5,.86,16.31,16.31,0,0,1-3.2-.32,16.76,16.76,0,0,1-3-.91,15.9,15.9,0,0,1-2.72-1.41,12.86,12.86,0,0,1-2.26-1.84l1.86-3a1.94,1.94,0,0,1,.61-.56,1.53,1.53,0,0,1,.8-.22,2.24,2.24,0,0,1,1.27.48c.46.32,1,.68,1.63,1.07a11.87,11.87,0,0,0,2.2,1.07,8.28,8.28,0,0,0,3,.49,6.16,6.16,0,0,0,4.19-1.29,4.59,4.59,0,0,0,1.49-3.68,3.45,3.45,0,0,0-.67-2.19A5.43,5.43,0,0,0,544,336.8a13.23,13.23,0,0,0-2.52-1c-.94-.27-1.9-.56-2.87-.87a25.13,25.13,0,0,1-2.87-1.13,9.22,9.22,0,0,1-2.52-1.72,7.87,7.87,0,0,1-1.78-2.65,10.06,10.06,0,0,1-.67-3.92,9.13,9.13,0,0,1,.74-3.62,9.31,9.31,0,0,1,2.15-3.14,10.7,10.7,0,0,1,3.49-2.19,12.75,12.75,0,0,1,4.75-.82,16.1,16.1,0,0,1,5.56.94,12.6,12.6,0,0,1,4.33,2.64Z"/><path class="cls-3" d="M124.65,345.64a38.46,38.46,0,0,1,27.48-39.45l.06,0h0c2.5-.59,4.66-1,6.62-1.32h0c14.59-2.27,18.11,2.06,57.31.56l1.88-.07c42.33-1.77,47.36-15.58,47.92-18.08a108.58,108.58,0,0,1-100.41,94.2c-.66,0-1.32.07-2,.08A38.45,38.45,0,0,1,124.65,345.64Z"/><path class="cls-4" d="M216.2,305.4c8.39-1.49,18.75-11.34,22.42-21.33,3.43-9.37,7.63-10.72,8.15-10.84a12.66,12.66,0,0,1,19.31,9.9,13.1,13.1,0,0,1-.26,3.56l.24.17c0,.05,0,.11,0,.16a.5.5,0,0,1,0,.12.52.52,0,0,1,0,.11c-.56,2.5-5.59,16.31-47.92,18.08Z"/><path class="cls-5" d="M216.2,305.4c8.39-1.49,18.75-11.34,22.42-21.33,3.43-9.37,7.63-10.72,8.15-10.84a12.66,12.66,0,0,1,19.31,9.9,13.1,13.1,0,0,1-.26,3.56l.24.17c0,.05,0,.11,0,.16a.5.5,0,0,1,0,.12.52.52,0,0,1,0,.11c-.56,2.5-5.59,16.31-47.92,18.08Z"/><path class="cls-6" d="M112.72,206.24a38.48,38.48,0,0,1,20.2,43.63s0,0,0,.06l0,0c-.75,2.45-1.47,4.53-2.2,6.38v0c-5.41,13.75-10.91,14.6-29.4,49.21-.3.54-.59,1.1-.88,1.66C80.56,344.69,90,356,91.82,357.74A108.59,108.59,0,0,1,61.14,223.52c.3-.59.6-1.17.93-1.75A38.45,38.45,0,0,1,112.72,206.24Z"/><path class="cls-7" d="M101.27,305.59c-2.94,8,.33,21.91,7.12,30.11,6.35,7.69,5.39,12,5.24,12.51a12.68,12.68,0,0,1-21.23,9.66l-.27.12-.13-.1a.39.39,0,0,1-.1-.08l-.08-.07C90,356,80.56,344.69,100.39,307.25,100.68,306.69,101,306.13,101.27,305.59Z"/><path class="cls-8" d="M101.27,305.59c-2.94,8,.33,21.91,7.12,30.11,6.35,7.69,5.39,12,5.24,12.51a12.68,12.68,0,0,1-21.23,9.66l-.27.12-.13-.1a.39.39,0,0,1-.1-.08l-.08-.07C90,356,80.56,344.69,100.39,307.25,100.68,306.69,101,306.13,101.27,305.59Z"/><path class="cls-9" d="M237.6,267.47a38.49,38.49,0,0,1-47.84-4.78l0-.05,0,0c-1.72-1.9-3.15-3.58-4.37-5.14l0,0c-9.1-11.64-7-16.81-27.44-50.32-.31-.53-.64-1.07-1-1.61-22.16-36.11-36.67-33.77-39.12-33a108.59,108.59,0,0,1,131.18,41.81c.36.55.7,1.11,1,1.69A38.45,38.45,0,0,1,237.6,267.47Z"/><path class="cls-2" d="M157.86,207.11c-5.38-6.6-19-10.85-29.54-9.18-9.86,1.56-13.08-1.45-13.44-1.84a12.67,12.67,0,0,1-.76-21.69,12.42,12.42,0,0,1,3.23-1.5l0-.3.15-.06.11,0,.11,0c2.45-.73,17-3.07,39.12,33C157.22,206,157.55,206.58,157.86,207.11Z"/><path class="cls-10" d="M157.86,207.11c-5.38-6.6-19-10.85-29.54-9.18-9.86,1.56-13.08-1.45-13.44-1.84a12.67,12.67,0,0,1-.76-21.69,12.42,12.42,0,0,1,3.23-1.5l0-.3.15-.06.11,0,.11,0c2.45-.73,17-3.07,39.12,33C157.22,206,157.55,206.58,157.86,207.11Z"/></g><g id="Layer_16" data-name="Layer 16"><text class="cls-11" transform="translate(96.43 439.01)"><tspan class="cls-12">H</tspan><tspan x="11.14" y="0">arness</tspan><tspan class="cls-13" x="53.94" y="0"> </tspan><tspan x="57.51" y="0">the </tspan><tspan class="cls-14" x="83.12" y="0">P</tspan><tspan class="cls-15" x="91.81" y="0">o</tspan><tspan class="cls-16" x="100.01" y="0">w</tspan><tspan class="cls-17" x="111.52" y="0">e</tspan><tspan class="cls-18" x="119.21" y="0">r</tspan><tspan x="124.42" y="0"> </tspan><tspan class="cls-19" x="128.1" y="0">o</tspan><tspan class="cls-20" x="136.24" y="0">f</tspan><tspan class="cls-17" x="141.23" y="0"> </tspan><tspan class="cls-21" x="144.91" y="0">H</tspan><tspan x="156.17" y="0">uman+</tspan><tspan class="cls-22" x="203.33" y="0">D</tspan><tspan x="214.51" y="0">igi</tspan><tspan class="cls-23" x="229.81" y="0">t</tspan><tspan x="235.38" y="0">al+Artificial INTELLIGENCE™</tspan></text></g></g></svg>