<svg xmlns="http://www.w3.org/2000/svg" xmlns:xlink="http://www.w3.org/1999/xlink" viewBox="0 0 595.28 595.28"><defs><style>.cls-1{isolation:isolate;}.cls-2{opacity:0.95;}.cls-3{fill:#0c2d4b;}.cls-4{fill:url(#linear-gradient);}.cls-5{fill:#1b3059;}.cls-12,.cls-6,.cls-9{opacity:0.2;mix-blend-mode:multiply;}.cls-6{fill:url(#radial-gradient);}.cls-7{fill:url(#linear-gradient-2);}.cls-8{fill:#307982;}.cls-9{fill:url(#radial-gradient-2);}.cls-10{fill:url(#linear-gradient-3);}.cls-11{fill:#253671;}.cls-12{fill:url(#radial-gradient-3);}</style><linearGradient id="linear-gradient" x1="1950.45" y1="-981.19" x2="1927.35" y2="-963.92" gradientTransform="translate(1942.99 -773.56) rotate(176.18)" gradientUnits="userSpaceOnUse"><stop offset="0" stop-color="#2b4c8d"/><stop offset="1" stop-color="#253671"/></linearGradient><radialGradient id="radial-gradient" cx="1928.04" cy="-961.43" r="9.66" gradientTransform="translate(1965.96 -339.45) rotate(175.5) scale(1 0.52)" gradientUnits="userSpaceOnUse"><stop offset="0" stop-color="#fff"/><stop offset="0.95" stop-color="#231f20"/></radialGradient><linearGradient id="linear-gradient-2" x1="1953.66" y1="-938" x2="1964.1" y2="-972.24" gradientTransform="translate(1942.99 -773.56) rotate(176.18)" gradientUnits="userSpaceOnUse"><stop offset="0" stop-color="#8bd0be"/><stop offset="1" stop-color="#4dc5d5"/></linearGradient><radialGradient id="radial-gradient-2" cx="1956.06" cy="-975.08" r="9.28" gradientTransform="translate(608.12 2255.2) rotate(-93.58) scale(1 0.44)" gradientUnits="userSpaceOnUse"><stop offset="0.03" stop-color="#fff"/><stop offset="0.95" stop-color="#231f20"/></radialGradient><linearGradient id="linear-gradient-3" x1="1944.93" y1="-928.79" x2="1922.59" y2="-961.31" gradientTransform="translate(1942.99 -773.56) rotate(176.18)" gradientUnits="userSpaceOnUse"><stop offset="0" stop-color="#2b4c8d"/><stop offset="1" stop-color="#5db6e6"/></linearGradient><radialGradient id="radial-gradient-3" cx="1952.07" cy="-939.39" r="9.48" gradientTransform="matrix(0.9, 0.44, -0.25, 0.5, -1925.91, -93.57)" xlink:href="#radial-gradient"/></defs><g class="cls-1"><g id="Layer_5" data-name="Layer 5"><g class="cls-2"><path class="cls-3" d="M115,302.86v7.92h10v4H115v10.88h-5V298.91h16.85v3.95Z"/><path class="cls-3" d="M151.76,325.63h-4.49a2,2,0,0,1-1.85-1l-5.61-8.56a2,2,0,0,0-.7-.68,2.34,2.34,0,0,0-1.12-.21h-2.12v10.44h-5V298.91h8.15a17.14,17.14,0,0,1,4.66.56,9.12,9.12,0,0,1,3.2,1.58,6.19,6.19,0,0,1,1.84,2.43,8.45,8.45,0,0,1,.19,5.67,7.2,7.2,0,0,1-1.14,2.18,7.82,7.82,0,0,1-1.85,1.72,9.26,9.26,0,0,1-2.5,1.16,5.19,5.19,0,0,1,.88.66,4.67,4.67,0,0,1,.74.89Zm-12.79-14a7.49,7.49,0,0,0,2.45-.36,4.55,4.55,0,0,0,1.72-1,3.88,3.88,0,0,0,1-1.46,5.14,5.14,0,0,0,.33-1.87,3.82,3.82,0,0,0-1.34-3.13,6.45,6.45,0,0,0-4.09-1.09h-3.18v8.88Z"/><path class="cls-3" d="M179.78,312.27a14.82,14.82,0,0,1-1,5.44,12.73,12.73,0,0,1-2.74,4.34,12.5,12.5,0,0,1-4.27,2.85,15.39,15.39,0,0,1-11.07,0,12.45,12.45,0,0,1-4.28-2.85,12.78,12.78,0,0,1-2.76-4.34,15.59,15.59,0,0,1,0-10.88,12.64,12.64,0,0,1,2.76-4.33,12.33,12.33,0,0,1,4.28-2.86,14.43,14.43,0,0,1,5.52-1,15.22,15.22,0,0,1,3.83.47,13.52,13.52,0,0,1,3.29,1.34,12.4,12.4,0,0,1,2.69,2.08,12.74,12.74,0,0,1,2,2.75,13.3,13.3,0,0,1,1.27,3.29A15.62,15.62,0,0,1,179.78,312.27Zm-5.08,0a12.36,12.36,0,0,0-.59-3.94,8.59,8.59,0,0,0-1.68-3,7.21,7.21,0,0,0-2.66-1.87,10,10,0,0,0-7,0,7.3,7.3,0,0,0-2.66,1.87,8.3,8.3,0,0,0-1.69,3,13.48,13.48,0,0,0,0,7.89,8.34,8.34,0,0,0,1.69,3,7.37,7.37,0,0,0,2.66,1.85,9.86,9.86,0,0,0,7,0,7.28,7.28,0,0,0,2.66-1.85,8.64,8.64,0,0,0,1.68-3A12.42,12.42,0,0,0,174.7,312.27Z"/><path class="cls-3" d="M198.39,303.77a1.5,1.5,0,0,1-.47.56,1,1,0,0,1-.62.18,1.6,1.6,0,0,1-.84-.29q-.45-.29-1.08-.63a8.42,8.42,0,0,0-1.47-.64,6.19,6.19,0,0,0-2-.29,5.82,5.82,0,0,0-1.81.25,4,4,0,0,0-1.3.69,2.87,2.87,0,0,0-.79,1.07,3.51,3.51,0,0,0-.25,1.36,2.38,2.38,0,0,0,.52,1.57,4.44,4.44,0,0,0,1.4,1.07,13.17,13.17,0,0,0,2,.79l2.27.75a20.39,20.39,0,0,1,2.27.93,7.73,7.73,0,0,1,2,1.33,6.13,6.13,0,0,1,1.4,2,6.88,6.88,0,0,1,.52,2.83,9,9,0,0,1-.62,3.39,7.75,7.75,0,0,1-1.81,2.76,8.49,8.49,0,0,1-2.91,1.85,10.91,10.91,0,0,1-3.94.67,13,13,0,0,1-4.88-1,13.12,13.12,0,0,1-2.14-1.11,10.11,10.11,0,0,1-1.77-1.44L183.5,320a1.54,1.54,0,0,1,.48-.43,1.16,1.16,0,0,1,.63-.18,1.76,1.76,0,0,1,1,.38c.36.26.79.54,1.28.84a9.62,9.62,0,0,0,1.73.84,6.47,6.47,0,0,0,2.37.38,4.87,4.87,0,0,0,3.29-1,3.62,3.62,0,0,0,1.17-2.9,2.67,2.67,0,0,0-.53-1.71,4.15,4.15,0,0,0-1.4-1.12,10.51,10.51,0,0,0-2-.77c-.74-.21-1.49-.44-2.26-.68a21.45,21.45,0,0,1-2.25-.89,7.54,7.54,0,0,1-2-1.35,6.1,6.1,0,0,1-1.4-2.08,8,8,0,0,1-.52-3.08,7.39,7.39,0,0,1,2.27-5.3,8.31,8.31,0,0,1,2.74-1.72,10,10,0,0,1,3.73-.65,12.51,12.51,0,0,1,4.36.74,10,10,0,0,1,3.4,2.07Z"/><path class="cls-3" d="M223.1,303h-8v22.64h-5V303h-8v-4.08H223.1Z"/><path class="cls-3" d="M258.2,312.27a14.53,14.53,0,0,1-1,5.4,12.08,12.08,0,0,1-7,7,14.94,14.94,0,0,1-5.55,1H234.47V298.91h10.18a14.94,14.94,0,0,1,5.55,1,12.71,12.71,0,0,1,4.27,2.75,12.34,12.34,0,0,1,2.75,4.23A14.44,14.44,0,0,1,258.2,312.27Zm-5.1,0a12.36,12.36,0,0,0-.58-3.94,8.24,8.24,0,0,0-1.68-3,7.31,7.31,0,0,0-2.67-1.86,9.13,9.13,0,0,0-3.52-.65h-5.19v18.82h5.19a9.13,9.13,0,0,0,3.52-.65,7.41,7.41,0,0,0,2.67-1.85,8.32,8.32,0,0,0,1.68-3A12.43,12.43,0,0,0,253.1,312.27Z"/><path class="cls-3" d="M267.57,325.63h-5V298.91h5Z"/><path class="cls-3" d="M295.57,312.24v10.81a14,14,0,0,1-4.33,2.19,17.13,17.13,0,0,1-4.93.69,16.38,16.38,0,0,1-5.92-1,13.22,13.22,0,0,1-4.53-2.82,12.43,12.43,0,0,1-2.89-4.33,14.42,14.42,0,0,1-1-5.49,15.1,15.1,0,0,1,1-5.52,12.16,12.16,0,0,1,7.15-7.14,16,16,0,0,1,5.77-1,17.13,17.13,0,0,1,3,.26,16.13,16.13,0,0,1,2.62.71,11.68,11.68,0,0,1,2.21,1.1,13.15,13.15,0,0,1,1.83,1.43l-1.42,2.25a1.35,1.35,0,0,1-.87.66,1.54,1.54,0,0,1-1.16-.27l-1.22-.7a7.37,7.37,0,0,0-1.36-.61,10.27,10.27,0,0,0-1.68-.43,12.61,12.61,0,0,0-2.16-.16,9.23,9.23,0,0,0-3.57.66,7.45,7.45,0,0,0-2.73,1.91,8.57,8.57,0,0,0-1.74,3,12.86,12.86,0,0,0,.05,8,8.66,8.66,0,0,0,1.85,3.05,7.88,7.88,0,0,0,2.87,1.9,11.28,11.28,0,0,0,6.4.34,13,13,0,0,0,2.27-.85V316h-3.36a1,1,0,0,1-.75-.27.9.9,0,0,1-.27-.66v-2.8Z"/><path class="cls-3" d="M305.37,325.63h-5V298.91h5Z"/><path class="cls-3" d="M330,303h-8.06v22.64h-5V303h-8.06v-4.08H330Z"/><path class="cls-3" d="M353.81,325.63H350a1.61,1.61,0,0,1-1-.32,1.93,1.93,0,0,1-.61-.8l-2-5.46H335.23l-2,5.46a1.73,1.73,0,0,1-.58.77,1.55,1.55,0,0,1-1.05.35h-3.88l10.52-26.72h5.06ZM345,315.54l-3.25-8.89c-.16-.39-.33-.86-.5-1.4s-.35-1.13-.52-1.76c-.16.63-.33,1.22-.5,1.77s-.34,1-.5,1.43l-3.23,8.85Z"/><path class="cls-3" d="M372.23,321.53v4.1H356.58V298.91h5v22.62Z"/><path class="cls-3" d="M405,298.26,394.24,325h-4.49L379,298.26h4a1.66,1.66,0,0,1,1.05.32,1.9,1.9,0,0,1,.61.81l6.31,16.3c.2.53.4,1.11.6,1.75s.37,1.29.54,2q.22-1,.48-2a15.65,15.65,0,0,1,.57-1.75l6.27-16.3a1.81,1.81,0,0,1,.58-.78,1.67,1.67,0,0,1,1.06-.35Z"/><path class="cls-3" d="M412.8,302.22v7.41h9.35v3.82H412.8V321h11.86v4H407.81V298.26h16.85v4Z"/><path class="cls-3" d="M451.59,298.26V325H449a2.27,2.27,0,0,1-1-.2,2.24,2.24,0,0,1-.76-.65l-14-17.82c.08.81.11,1.57.11,2.26V325h-4.38V298.26h2.61a4.16,4.16,0,0,1,.54,0,1.53,1.53,0,0,1,.41.11,1.51,1.51,0,0,1,.34.24,3.32,3.32,0,0,1,.37.42l14,17.89c0-.43-.07-.86-.09-1.28s0-.8,0-1.16V298.26Z"/><path class="cls-3" d="M476.21,302.35h-8.06V325h-5V302.35h-8.06v-4.09h21.09Z"/><path class="cls-3" d="M490.48,321a6.59,6.59,0,0,0,2.58-.48,5.35,5.35,0,0,0,1.91-1.35,6,6,0,0,0,1.19-2.11,8.61,8.61,0,0,0,.42-2.77v-16h5v16a12.38,12.38,0,0,1-.77,4.41,9.8,9.8,0,0,1-5.68,5.78,13.48,13.48,0,0,1-9.26,0,10,10,0,0,1-3.49-2.29,10.21,10.21,0,0,1-2.2-3.49,12.38,12.38,0,0,1-.76-4.41v-16h5v16a8.57,8.57,0,0,0,.42,2.77,5.8,5.8,0,0,0,1.2,2.12,5.32,5.32,0,0,0,1.92,1.36A6.59,6.59,0,0,0,490.48,321Z"/><path class="cls-3" d="M528,325h-4.49a2,2,0,0,1-1.85-1l-5.62-8.56a1.93,1.93,0,0,0-.69-.68,2.34,2.34,0,0,0-1.12-.21h-2.12V325h-5V298.26h8.15a16.72,16.72,0,0,1,4.66.57,8.8,8.8,0,0,1,3.2,1.58,6.15,6.15,0,0,1,1.84,2.43,8.05,8.05,0,0,1,.59,3.11,7.92,7.92,0,0,1-.4,2.55,7.2,7.2,0,0,1-1.14,2.18,7.62,7.62,0,0,1-1.85,1.72,9.59,9.59,0,0,1-2.5,1.17,5,5,0,0,1,.88.65,4.45,4.45,0,0,1,.74.9Zm-12.79-14a7.82,7.82,0,0,0,2.45-.35,4.84,4.84,0,0,0,1.72-1,4,4,0,0,0,1-1.47,5.14,5.14,0,0,0,.33-1.87,3.78,3.78,0,0,0-1.34-3.12,6.38,6.38,0,0,0-4.09-1.09h-3.18V311Z"/><path class="cls-3" d="M535.92,302.22v7.41h9.36v3.82h-9.36V321h11.87v4H530.93V298.26h16.86v4Z"/><path class="cls-3" d="M566.42,303.12a1.88,1.88,0,0,1-.47.57,1.13,1.13,0,0,1-.62.17,1.58,1.58,0,0,1-.84-.28c-.3-.19-.67-.41-1.08-.64a8.42,8.42,0,0,0-1.47-.64,6.23,6.23,0,0,0-2-.29,6.14,6.14,0,0,0-1.81.25,3.75,3.75,0,0,0-1.3.7,2.64,2.64,0,0,0-.79,1.06,3.54,3.54,0,0,0-.26,1.36,2.37,2.37,0,0,0,.53,1.57,4.25,4.25,0,0,0,1.39,1.07,13.15,13.15,0,0,0,2,.8c.74.23,1.5.48,2.27.74a22.68,22.68,0,0,1,2.28.93,7.73,7.73,0,0,1,2,1.33,6,6,0,0,1,1.39,2,6.82,6.82,0,0,1,.53,2.82,9.33,9.33,0,0,1-.62,3.4,7.84,7.84,0,0,1-1.81,2.75,8.68,8.68,0,0,1-2.91,1.85,10.74,10.74,0,0,1-3.94.67,12.35,12.35,0,0,1-2.51-.25,12.84,12.84,0,0,1-4.51-1.82,10.18,10.18,0,0,1-1.78-1.44l1.46-2.38A1.69,1.69,0,0,1,552,319a1.29,1.29,0,0,1,.63-.17,1.72,1.72,0,0,1,1,.38c.36.25.78.53,1.27.84a10,10,0,0,0,1.73.84,6.71,6.71,0,0,0,2.38.38,4.9,4.9,0,0,0,3.29-1,3.64,3.64,0,0,0,1.16-2.89,2.67,2.67,0,0,0-.52-1.72,4.38,4.38,0,0,0-1.4-1.12,10.61,10.61,0,0,0-2-.77c-.74-.21-1.49-.43-2.25-.68a18.92,18.92,0,0,1-2.26-.89,7.09,7.09,0,0,1-2-1.35,6.12,6.12,0,0,1-1.39-2.08,7.9,7.9,0,0,1-.53-3.07,7.41,7.41,0,0,1,.58-2.85,7.5,7.5,0,0,1,1.7-2.46,8.27,8.27,0,0,1,2.73-1.72,10.09,10.09,0,0,1,3.73-.64,12.34,12.34,0,0,1,4.37.74,9.8,9.8,0,0,1,3.4,2.07Z"/><path class="cls-4" d="M60.13,328.56a8.66,8.66,0,0,1,6.17-8.87h0c.56-.13,1-.23,1.48-.3h0c3.28-.51,4.07.46,12.88.13l.42,0c9.51-.4,10.64-3.5,10.77-4.06A24.4,24.4,0,0,1,69.33,336.6l-.45,0A8.64,8.64,0,0,1,60.13,328.56Z"/><path class="cls-5" d="M80.7,319.52c1.88-.34,4.21-2.55,5-4.8s1.72-2.4,1.84-2.43a2.78,2.78,0,0,1,1.31-.42,2.83,2.83,0,0,1,3,2.64,2.63,2.63,0,0,1-.06.8l.06,0v.09c-.13.56-1.26,3.66-10.77,4.06Z"/><path class="cls-6" d="M80.7,319.52c1.88-.34,4.21-2.55,5-4.8s1.72-2.4,1.84-2.43a2.78,2.78,0,0,1,1.31-.42,2.83,2.83,0,0,1,3,2.64,2.63,2.63,0,0,1-.06.8l.06,0v.09c-.13.56-1.26,3.66-10.77,4.06Z"/><path class="cls-7" d="M57.45,297.24A8.64,8.64,0,0,1,62,307v0h0c-.17.55-.33,1-.49,1.44h0c-1.21,3.09-2.45,3.28-6.6,11.06l-.2.37c-4.45,8.41-2.34,10.95-1.92,11.34a24.4,24.4,0,0,1-6.9-30.15l.21-.39A8.64,8.64,0,0,1,57.45,297.24Z"/><path class="cls-8" d="M54.88,319.56c-.66,1.79.07,4.92,1.6,6.76s1.21,2.7,1.18,2.81a2.92,2.92,0,0,1-.3,1.35,2.85,2.85,0,0,1-3.81,1.28,2.88,2.88,0,0,1-.66-.46l-.06,0,0,0,0,0v0c-.42-.39-2.53-2.93,1.92-11.34Z"/><path class="cls-9" d="M54.88,319.56c-.66,1.79.07,4.92,1.6,6.76s1.21,2.7,1.18,2.81a2.92,2.92,0,0,1-.3,1.35,2.85,2.85,0,0,1-3.81,1.28,2.88,2.88,0,0,1-.66-.46l-.06,0,0,0,0,0v0c-.42-.39-2.53-2.93,1.92-11.34Z"/><path class="cls-10" d="M85.51,311a8.64,8.64,0,0,1-10.75-1.07h0c-.38-.42-.7-.8-1-1.15h0c-2.05-2.61-1.58-3.78-6.17-11.3-.07-.12-.14-.25-.22-.37-5-8.11-8.24-7.58-8.79-7.42A24.41,24.41,0,0,1,88.05,299c.08.13.16.25.23.38A8.62,8.62,0,0,1,85.51,311Z"/><path class="cls-11" d="M67.59,297.44C66.38,296,63.32,295,61,295.37c-2.21.35-2.93-.32-3-.41a2.84,2.84,0,0,1-.17-4.87,2.63,2.63,0,0,1,.72-.34v-.07h.06s0,0,0,0c.55-.16,3.81-.69,8.79,7.42C67.45,297.19,67.52,297.32,67.59,297.44Z"/><path class="cls-12" d="M67.59,297.44C66.38,296,63.32,295,61,295.37c-2.21.35-2.93-.32-3-.41a2.84,2.84,0,0,1-.17-4.87,2.63,2.63,0,0,1,.72-.34v-.07h.06s0,0,0,0c.55-.16,3.81-.69,8.79,7.42C67.45,297.19,67.52,297.32,67.59,297.44Z"/></g></g></g></svg>